<svg width="16" height="15" viewBox="0 0 16 15" fill="none" xmlns="http://www.w3.org/2000/svg">
<path d="M7.88534 3.00052L8.21904 3.50694L8.55317 3.0008C9.80638 1.10245 11.5584 0.723801 12.9798 1.2603C14.4243 1.80545 15.5986 3.32144 15.5986 5.37289C15.5986 6.08249 15.2143 6.95177 14.5499 7.90578C13.8941 8.84744 13.0052 9.81602 12.0835 10.7133C11.1635 11.6089 10.2207 12.4239 9.46297 13.0595C9.1908 13.2878 8.94388 13.4919 8.72973 13.6688C8.64538 13.7385 8.56612 13.804 8.4924 13.8651C8.39168 13.9486 8.29869 14.0261 8.21687 14.0955C8.13064 14.0244 8.03239 13.9454 7.92626 13.8606C7.81973 13.7754 7.70303 13.6828 7.57667 13.5825C7.37874 13.4254 7.1571 13.2495 6.91365 13.0541C6.12134 12.418 5.13251 11.6026 4.1664 10.7067C3.19838 9.80889 2.26386 8.83995 1.57418 7.89806C0.87456 6.94259 0.472998 6.07619 0.472998 5.37289C0.472998 3.32016 1.72494 1.79787 3.26957 1.25042C4.79738 0.708936 6.64041 1.11117 7.88534 3.00052Z" stroke="#00C65E" stroke-width="0.8"/>
</svg>
