<svg width="214" height="221" viewBox="0 0 214 221" fill="none" xmlns="http://www.w3.org/2000/svg">
<g clip-path="url(#clip0_8900_6975)">
<path d="M27.979 5.22656H26.6606V8.77148H22.5181V5.22656H21.1997V13.6289H22.5181V9.9668H26.6606V13.6289H27.979V5.22656ZM34.395 10.752C34.395 11.291 34.2134 11.7422 33.8618 12.1113C33.5044 12.4863 33.0825 12.668 32.5962 12.668C32.104 12.668 31.6821 12.4863 31.3247 12.1113C30.9673 11.7422 30.7915 11.291 30.7915 10.752C30.7915 10.2129 30.9673 9.76172 31.3247 9.38672C31.6821 9.01758 32.104 8.83008 32.5962 8.83008C33.0825 8.83008 33.5044 9.01758 33.8618 9.38672C34.2134 9.76172 34.395 10.2129 34.395 10.752ZM29.5962 10.752C29.5962 11.5605 29.8892 12.2578 30.4868 12.8555C31.0845 13.4531 31.7876 13.752 32.5962 13.752C33.4048 13.752 34.1021 13.4531 34.6997 12.8555C35.2974 12.2578 35.5962 11.5605 35.5962 10.752C35.5962 9.94336 35.2974 9.24023 34.6997 8.64258C34.1021 8.04492 33.4048 7.74609 32.5962 7.74609C31.7876 7.74609 31.0845 8.04492 30.4868 8.64258C29.8892 9.24023 29.5962 9.94336 29.5962 10.752ZM38.2974 14.2266C38.0747 14.7891 37.7349 15.0703 37.2778 15.0703C37.0728 15.0703 36.8735 15.0293 36.6743 14.9473V16.0312L36.7563 16.0547C36.8208 16.0781 36.9263 16.1016 37.0669 16.1191C37.2075 16.1426 37.354 16.1484 37.5181 16.1484C37.9517 16.1484 38.3149 16.0078 38.6079 15.7207C38.9009 15.4395 39.1938 14.9414 39.4927 14.2266L42.0767 7.86914H40.8169L39.1353 12.0703L37.4536 7.86914H36.1938L38.5376 13.6289L38.2974 14.2266ZM42.4341 8.94727H44.4146V13.6289H45.6099V8.94727H47.5903V7.86914H42.4341V8.94727ZM54.4282 10.8105C54.4282 10.0137 54.147 9.32227 53.5903 8.74219C53.0337 8.16211 52.395 7.86914 51.6685 7.86914C51.4458 7.86914 51.2231 7.9043 51.0063 7.96875C50.7896 8.0332 50.6138 8.10352 50.4731 8.18555C50.3325 8.26758 50.2036 8.35547 50.0806 8.46094C49.9517 8.56641 49.8696 8.63672 49.8286 8.67773C49.7876 8.71875 49.7583 8.75391 49.7466 8.77734C49.8052 8.15625 49.9985 7.66406 50.3384 7.30078C50.6724 6.93164 51.1177 6.70312 51.6685 6.61523C52.3071 6.50977 52.8345 6.38086 53.2505 6.22852C53.6665 6.07617 53.9126 5.9707 53.9829 5.91211C54.0532 5.85352 54.106 5.80664 54.1294 5.77734L53.5903 4.875L53.397 4.99219C53.2681 5.0625 53.0337 5.15625 52.6938 5.26758C52.354 5.37305 51.9731 5.4668 51.5454 5.53711C50.5845 5.69531 49.8462 6.12305 49.3247 6.82617C48.8091 7.52344 48.5454 8.57227 48.5454 9.97266C48.5454 11.1973 48.8208 12.1348 49.3716 12.7793C49.9224 13.4238 50.6431 13.7461 51.5454 13.7461C52.3306 13.7461 53.0044 13.459 53.5728 12.8848C54.1411 12.3105 54.4282 11.6191 54.4282 10.8105ZM49.8638 10.8105C49.8638 10.2832 50.0337 9.84375 50.3618 9.48633C50.6958 9.12891 51.0884 8.94727 51.5454 8.94727C52.0024 8.94727 52.395 9.12891 52.729 9.48633C53.0571 9.84375 53.2271 10.2832 53.2271 10.8105C53.2271 11.3379 53.0571 11.7832 52.729 12.1348C52.395 12.4922 52.0024 12.668 51.5454 12.668C51.0884 12.668 50.6958 12.4922 50.3618 12.1348C50.0337 11.7832 49.8638 11.3379 49.8638 10.8105ZM57.2466 14.2266C57.0239 14.7891 56.6841 15.0703 56.2271 15.0703C56.022 15.0703 55.8228 15.0293 55.6235 14.9473V16.0312L55.7056 16.0547C55.77 16.0781 55.8755 16.1016 56.0161 16.1191C56.1567 16.1426 56.3032 16.1484 56.4673 16.1484C56.9009 16.1484 57.2642 16.0078 57.5571 15.7207C57.8501 15.4395 58.1431 14.9414 58.4419 14.2266L61.0259 7.86914H59.7661L58.0845 12.0703L56.4028 7.86914H55.1431L57.4868 13.6289L57.2466 14.2266ZM67.0845 7.86914H65.6431L63.1821 10.4473V7.86914H61.981V13.6289H63.1821V12.0117L64.0845 11.0508L65.9419 13.6289H67.2603L64.8638 10.2715L67.0845 7.86914Z" fill="#DADCDC"/>
<path d="M20.3188 38.6289H22.1548L23.3579 35.668H28.3188L29.522 38.6289H31.3579L26.7173 27.4258H24.9595L20.3188 38.6289ZM25.8423 29.4258L27.6782 34.0664H23.9985L25.8423 29.4258ZM36.8032 38.7852C37.8188 38.7852 38.6938 38.4023 39.4438 37.6211C40.1938 36.8398 40.5688 35.8945 40.5688 34.7852C40.5688 33.6758 40.1938 32.7383 39.4438 31.957C38.6938 31.1758 37.8188 30.7852 36.8032 30.7852C36.3501 30.7852 35.9126 30.8867 35.4829 31.0742C35.0454 31.2695 34.7642 31.4258 34.6313 31.543C34.4985 31.668 34.397 31.7617 34.3267 31.832V30.9492H32.7251V41.9883H34.3267V37.7461L34.436 37.8633C34.4985 37.9258 34.6079 38.0117 34.7563 38.1211C34.9048 38.2305 35.0767 38.332 35.272 38.4336C35.4595 38.5352 35.6938 38.6211 35.9673 38.6836C36.2329 38.7539 36.5142 38.7852 36.8032 38.7852ZM36.647 32.2305C37.2563 32.2305 37.7954 32.4805 38.2642 32.9805C38.7329 33.4805 38.9673 34.0898 38.9673 34.793C38.9673 35.4961 38.7329 36.0977 38.2642 36.5977C37.7954 37.0977 37.2563 37.3477 36.647 37.3477C36.0376 37.3477 35.4985 37.0977 35.0298 36.5977C34.561 36.0977 34.3267 35.4961 34.3267 34.793C34.3267 34.0898 34.561 33.4805 35.0298 32.9805C35.4985 32.4805 36.0376 32.2305 36.647 32.2305ZM46.397 38.7852C47.4126 38.7852 48.2876 38.4023 49.0376 37.6211C49.7876 36.8398 50.1626 35.8945 50.1626 34.7852C50.1626 33.6758 49.7876 32.7383 49.0376 31.957C48.2876 31.1758 47.4126 30.7852 46.397 30.7852C45.9438 30.7852 45.5063 30.8867 45.0767 31.0742C44.6392 31.2695 44.3579 31.4258 44.2251 31.543C44.0923 31.668 43.9907 31.7617 43.9204 31.832V30.9492H42.3188V41.9883H43.9204V37.7461L44.0298 37.8633C44.0923 37.9258 44.2017 38.0117 44.3501 38.1211C44.4985 38.2305 44.6704 38.332 44.8657 38.4336C45.0532 38.5352 45.2876 38.6211 45.561 38.6836C45.8267 38.7539 46.1079 38.7852 46.397 38.7852ZM46.2407 32.2305C46.8501 32.2305 47.3892 32.4805 47.8579 32.9805C48.3267 33.4805 48.561 34.0898 48.561 34.793C48.561 35.4961 48.3267 36.0977 47.8579 36.5977C47.3892 37.0977 46.8501 37.3477 46.2407 37.3477C45.6313 37.3477 45.0923 37.0977 44.6235 36.5977C44.1548 36.0977 43.9204 35.4961 43.9204 34.793C43.9204 34.0898 44.1548 33.4805 44.6235 32.9805C45.0923 32.4805 45.6313 32.2305 46.2407 32.2305ZM53.6704 27.4258H52.0767V38.6289H53.6704V27.4258ZM63.186 35.3477L63.272 34.5508C63.272 33.4727 62.9126 32.582 62.1938 31.8633C61.4751 31.1445 60.5845 30.7852 59.5063 30.7852C58.4282 30.7852 57.5063 31.1758 56.7407 31.9414C55.9751 32.707 55.5845 33.6289 55.5845 34.707C55.5845 35.832 55.9829 36.793 56.772 37.5898C57.561 38.3867 58.4985 38.7852 59.5845 38.7852C59.9907 38.7852 60.3892 38.7305 60.772 38.6133C61.1548 38.4961 61.4673 38.3711 61.7017 38.2305C61.9438 38.0898 62.1704 37.9336 62.3813 37.7539C62.6001 37.5742 62.7407 37.4492 62.8032 37.3711C62.8657 37.293 62.9126 37.2383 62.9438 37.1914L61.9048 36.1523L61.6626 36.4492C61.5063 36.6445 61.2329 36.8398 60.8423 37.043C60.4517 37.2461 60.0376 37.3477 59.5845 37.3477C58.9673 37.3477 58.436 37.1523 57.9829 36.7539C57.5298 36.3633 57.2642 35.8945 57.1782 35.3477H63.186ZM59.4985 32.1523C60.0923 32.1523 60.5767 32.3242 60.9673 32.668C61.3579 33.0117 61.6001 33.4492 61.6938 33.9883H57.2485C57.3892 33.4492 57.6548 33.0117 58.0454 32.668C58.436 32.3242 58.9204 32.1523 59.4985 32.1523ZM74.6235 32.8711L70.3032 27.4258H68.7876V38.6289H70.5454V30.4727L74.6235 35.5898L78.7095 30.4727V38.6289H80.4673V27.4258H78.9438L74.6235 32.8711ZM89.2642 38.6289V33.668C89.2642 32.8555 88.9595 32.1758 88.3657 31.6211C87.7642 31.0664 86.9985 30.7852 86.061 30.7852C85.686 30.7852 85.3188 30.8398 84.9673 30.9414C84.6157 31.043 84.3345 31.1602 84.1235 31.2852C83.9048 31.418 83.7017 31.5664 83.5142 31.7305C83.3267 31.8945 83.2017 32.0117 83.147 32.0742C83.0923 32.1367 83.0532 32.1914 83.022 32.2305L84.061 33.2695L84.272 32.9961C84.397 32.8242 84.6235 32.6602 84.9517 32.4883C85.2798 32.3164 85.6548 32.2305 86.061 32.2305C86.5298 32.2305 86.9126 32.3711 87.2095 32.6445C87.5063 32.9258 87.6626 33.2617 87.6626 33.668L84.8579 34.1523C84.1626 34.2695 83.6157 34.543 83.2173 34.9648C82.8188 35.3945 82.6235 35.9258 82.6235 36.5586C82.6235 37.1367 82.8813 37.6602 83.397 38.1133C83.9126 38.5664 84.561 38.793 85.3423 38.793C85.6079 38.793 85.8657 38.7539 86.1313 38.6914C86.3892 38.6211 86.6079 38.543 86.7798 38.457C86.9517 38.3711 87.1079 38.2773 87.2563 38.168C87.4048 38.0586 87.5063 37.9883 87.5532 37.9414C87.6001 37.8945 87.6392 37.8555 87.6626 37.8398V38.6367L89.2642 38.6289ZM85.5845 37.3555C85.1626 37.3555 84.8345 37.2539 84.5845 37.0664C84.3345 36.8711 84.2173 36.6445 84.2173 36.3867C84.2173 36.1133 84.3032 35.8867 84.4829 35.707C84.6548 35.5195 84.8892 35.4023 85.1782 35.3555L87.6626 34.957V35.1133C87.6626 35.832 87.4751 36.3789 87.1079 36.7695C86.7407 37.1602 86.2329 37.3555 85.5845 37.3555ZM91.0298 34.793C91.0298 35.8711 91.4204 36.8008 92.2173 37.5977C93.0142 38.3945 93.9517 38.793 95.0298 38.793C95.397 38.793 95.7642 38.7305 96.1313 38.6133C96.4907 38.4961 96.7876 38.3711 97.022 38.2305C97.2485 38.0898 97.4673 37.9336 97.6782 37.7539C97.8813 37.5742 98.022 37.4492 98.0845 37.3711C98.147 37.293 98.1938 37.2383 98.2251 37.1992L97.186 36.1602L96.9438 36.457C96.7876 36.6445 96.5298 36.8477 96.1704 37.0508C95.811 37.2539 95.436 37.3555 95.0298 37.3555C94.3735 37.3555 93.811 37.1055 93.3345 36.6133C92.8579 36.1133 92.6235 35.5117 92.6235 34.793C92.6235 34.0742 92.8579 33.4727 93.3345 32.9805C93.811 32.4805 94.3735 32.2383 95.0298 32.2383C95.436 32.2383 95.811 32.3398 96.1704 32.5508C96.5298 32.7539 96.7563 32.918 96.8657 33.043C96.9751 33.168 97.0532 33.2695 97.1079 33.3555L98.147 32.3164L97.811 31.9492C97.5845 31.6914 97.2173 31.4336 96.7017 31.1758C96.186 30.918 95.6235 30.793 95.0298 30.793C93.9517 30.793 93.0142 31.1914 92.2173 31.9883C91.4204 32.7852 91.0298 33.7148 91.0298 34.793ZM105.178 38.6289C106.202 38.6289 107.061 38.3086 107.749 37.6602C108.436 37.0195 108.78 36.2461 108.78 35.3477C108.78 35.0117 108.717 34.6836 108.592 34.3711C108.467 34.0586 108.334 33.8008 108.194 33.6055C108.053 33.4023 107.881 33.2227 107.686 33.0586C107.483 32.8945 107.35 32.7852 107.272 32.7383C107.194 32.6914 107.139 32.6523 107.1 32.6367L107.389 32.4102C107.569 32.2617 107.749 32.0039 107.936 31.6289C108.124 31.2539 108.217 30.8398 108.217 30.3945C108.217 29.6133 107.897 28.9258 107.256 28.332C106.616 27.7305 105.842 27.4336 104.936 27.4336H100.381V38.6367L105.178 38.6289ZM102.139 37.1133V33.4336H105.178C105.702 33.4336 106.139 33.6055 106.491 33.9648C106.842 34.3164 107.022 34.7539 107.022 35.2773C107.022 35.793 106.842 36.2305 106.491 36.582C106.131 36.9336 105.694 37.1133 105.178 37.1133H102.139ZM104.936 28.957C105.374 28.957 105.733 29.0977 106.022 29.3867C106.311 29.6758 106.459 30.0352 106.459 30.4727C106.459 30.9102 106.311 31.2695 106.022 31.5586C105.733 31.8477 105.374 31.9961 104.936 31.9961H102.139V28.957H104.936ZM116.694 34.793C116.694 35.5117 116.452 36.1133 115.983 36.6055C115.506 37.1055 114.944 37.3477 114.295 37.3477C113.639 37.3477 113.077 37.1055 112.6 36.6055C112.124 36.1133 111.889 35.5117 111.889 34.793C111.889 34.0742 112.124 33.4727 112.6 32.9727C113.077 32.4805 113.639 32.2305 114.295 32.2305C114.944 32.2305 115.506 32.4805 115.983 32.9727C116.452 33.4727 116.694 34.0742 116.694 34.793ZM110.295 34.793C110.295 35.8711 110.686 36.8008 111.483 37.5977C112.28 38.3945 113.217 38.793 114.295 38.793C115.374 38.793 116.303 38.3945 117.1 37.5977C117.897 36.8008 118.295 35.8711 118.295 34.793C118.295 33.7148 117.897 32.7773 117.1 31.9805C116.303 31.1836 115.374 30.7852 114.295 30.7852C113.217 30.7852 112.28 31.1836 111.483 31.9805C110.686 32.7773 110.295 33.7148 110.295 34.793ZM125.975 34.793C125.975 35.5117 125.733 36.1133 125.264 36.6055C124.788 37.1055 124.225 37.3477 123.577 37.3477C122.92 37.3477 122.358 37.1055 121.881 36.6055C121.405 36.1133 121.17 35.5117 121.17 34.793C121.17 34.0742 121.405 33.4727 121.881 32.9727C122.358 32.4805 122.92 32.2305 123.577 32.2305C124.225 32.2305 124.788 32.4805 125.264 32.9727C125.733 33.4727 125.975 34.0742 125.975 34.793ZM119.577 34.793C119.577 35.8711 119.967 36.8008 120.764 37.5977C121.561 38.3945 122.499 38.793 123.577 38.793C124.655 38.793 125.584 38.3945 126.381 37.5977C127.178 36.8008 127.577 35.8711 127.577 34.793C127.577 33.7148 127.178 32.7773 126.381 31.9805C125.584 31.1836 124.655 30.7852 123.577 30.7852C122.499 30.7852 121.561 31.1836 120.764 31.9805C119.967 32.7773 119.577 33.7148 119.577 34.793ZM136.295 30.9492H134.374L131.092 34.3867V27.4258H129.499V38.6289H131.092V36.4727L132.295 35.1914L134.772 38.6289H136.538L133.334 34.1523L136.295 30.9492ZM140.303 38.6289H142.139L143.342 35.668H148.303L149.506 38.6289H151.342L146.702 27.4258H144.944L140.303 38.6289ZM145.827 29.4258L147.663 34.0664H143.983L145.827 29.4258ZM154.389 30.9492H152.788V38.6289H154.389V30.9492ZM154.553 28.5508C154.553 28.2773 154.459 28.0508 154.28 27.8711C154.092 27.6836 153.866 27.5977 153.592 27.5977C153.311 27.5977 153.084 27.6836 152.905 27.8711C152.717 28.0508 152.631 28.2773 152.631 28.5508C152.631 28.832 152.717 29.0586 152.905 29.2383C153.084 29.4258 153.311 29.5117 153.592 29.5117C153.866 29.5117 154.092 29.4258 154.28 29.2383C154.459 29.0586 154.553 28.832 154.553 28.5508ZM161.03 32.3086V30.7852H160.631C160.366 30.7852 160.1 30.8242 159.834 30.8945C159.569 30.9648 159.358 31.043 159.186 31.1289C159.014 31.2148 158.858 31.3086 158.702 31.418C158.553 31.5273 158.452 31.5977 158.405 31.6445L158.303 31.7461V30.9492H156.702V38.6289H158.303V34.4727C158.303 33.7695 158.491 33.2148 158.85 32.8242C159.209 32.4336 159.694 32.2305 160.303 32.2305C160.569 32.2305 160.811 32.2617 161.03 32.3086ZM169.506 27.4258C169.28 27.8789 168.991 28.2227 168.639 28.4727C168.288 28.7227 167.78 28.8789 167.108 28.9492V30.1523H169.108V38.6289H170.866V27.4258H169.506ZM181.584 32.707L181.741 32.6133C181.85 32.5664 181.975 32.4727 182.124 32.3477C182.272 32.2227 182.42 32.0664 182.561 31.8867C182.702 31.7148 182.827 31.4805 182.936 31.1992C183.045 30.918 183.1 30.6211 183.1 30.3164C183.1 29.418 182.788 28.6836 182.163 28.1211C181.538 27.5586 180.678 27.2773 179.577 27.2773C179.131 27.2773 178.702 27.332 178.288 27.457C177.866 27.582 177.53 27.7148 177.28 27.8555C177.022 27.9961 176.78 28.168 176.553 28.3633C176.334 28.5664 176.186 28.6992 176.124 28.7773C176.061 28.8555 176.006 28.9102 175.975 28.9492L177.092 30.0664L177.35 29.7617C177.538 29.5742 177.834 29.3789 178.249 29.1758C178.67 28.9727 179.108 28.8711 179.577 28.8711C180.131 28.8711 180.561 29.0195 180.874 29.3008C181.186 29.5898 181.334 29.9805 181.334 30.4727C181.334 30.9648 181.186 31.3555 180.874 31.6367C180.561 31.9258 180.131 32.0664 179.577 32.0664H178.452V33.668H179.577C180.272 33.668 180.819 33.8398 181.217 34.1758C181.616 34.5117 181.811 34.9336 181.811 35.4336C181.811 35.9336 181.616 36.3555 181.217 36.6914C180.819 37.0273 180.272 37.1914 179.577 37.1914C179.217 37.1914 178.866 37.1523 178.538 37.0586C178.209 36.9648 177.936 36.8633 177.733 36.7539C177.53 36.6445 177.342 36.5117 177.163 36.3633C176.983 36.2148 176.866 36.1133 176.811 36.0508C176.756 35.9883 176.717 35.9414 176.694 35.9102L175.577 37.0273L175.717 37.2227C175.827 37.3398 175.991 37.4805 176.209 37.6523C176.428 37.8242 176.686 37.9961 176.983 38.168C177.28 38.3398 177.663 38.4805 178.124 38.6055C178.584 38.7305 179.069 38.793 179.577 38.793C180.78 38.793 181.749 38.4727 182.483 37.8398C183.217 37.207 183.577 36.4336 183.577 35.5195C183.577 35.1133 183.506 34.7383 183.358 34.3945C183.217 34.0508 183.053 33.7852 182.881 33.5898C182.709 33.4023 182.506 33.2305 182.272 33.082C182.045 32.9336 181.889 32.8398 181.795 32.8008C181.702 32.7617 181.631 32.7305 181.584 32.707ZM26.1548 56.9492C26.1548 56.3633 25.897 55.8555 25.3813 55.4258C24.8657 55.0039 24.1626 54.7852 23.2798 54.7852C22.7329 54.7852 22.2173 54.8945 21.7329 55.0977C21.2485 55.3086 20.936 55.4727 20.7954 55.5977C20.6548 55.7227 20.5454 55.832 20.4751 55.9102L21.522 56.9492L21.7251 56.7695C21.8657 56.6445 22.0767 56.5273 22.3735 56.4102C22.6704 56.293 22.9673 56.2305 23.2798 56.2305C23.6938 56.2305 24.0142 56.3164 24.2329 56.4805C24.4517 56.6445 24.561 56.8555 24.561 57.1133C24.561 57.3711 24.4517 57.582 24.2329 57.7461C24.0142 57.9102 23.6938 57.9883 23.2798 57.9883H22.397V59.2695H23.2798C23.811 59.2695 24.2095 59.3711 24.4751 59.5664C24.7407 59.7695 24.8813 60.0117 24.8813 60.3086C24.8813 60.6055 24.7407 60.8555 24.4751 61.0508C24.2095 61.2539 23.811 61.3477 23.2798 61.3477C22.9204 61.3477 22.5688 61.2617 22.2173 61.0898C21.8657 60.918 21.6392 60.7695 21.5298 60.6602C21.4204 60.5508 21.3423 60.4648 21.2798 60.3867L20.2407 61.4258L20.3501 61.5742C20.4282 61.668 20.561 61.7852 20.7329 61.918C20.9048 62.0508 21.1001 62.1836 21.3345 62.3086C21.561 62.4414 21.8501 62.5508 22.1938 62.6445C22.5376 62.7383 22.897 62.7852 23.272 62.7852C24.2642 62.7852 25.0454 62.5664 25.6157 62.1133C26.186 61.6602 26.4673 61.1133 26.4673 60.4727C26.4673 60.1836 26.4126 59.918 26.3032 59.6836C26.1938 59.4492 26.0688 59.2695 25.936 59.1367C25.8032 59.0039 25.6548 58.8867 25.4829 58.793C25.311 58.6992 25.1938 58.6367 25.1235 58.6133C25.0532 58.582 24.9985 58.5664 24.9517 58.5586L25.2563 58.4102C25.4595 58.3242 25.6626 58.1523 25.8579 57.8867C26.0532 57.6211 26.1548 57.3086 26.1548 56.9492ZM34.1626 58.793C34.1626 59.5117 33.9204 60.1133 33.4517 60.6055C32.9751 61.1055 32.4126 61.3477 31.7642 61.3477C31.1079 61.3477 30.5454 61.1055 30.0688 60.6055C29.5923 60.1133 29.3579 59.5117 29.3579 58.793C29.3579 58.0742 29.5923 57.4727 30.0688 56.9727C30.5454 56.4805 31.1079 56.2305 31.7642 56.2305C32.4126 56.2305 32.9751 56.4805 33.4517 56.9727C33.9204 57.4727 34.1626 58.0742 34.1626 58.793ZM27.7642 58.793C27.7642 59.8711 28.1548 60.8008 28.9517 61.5977C29.7485 62.3945 30.686 62.793 31.7642 62.793C32.8423 62.793 33.772 62.3945 34.5688 61.5977C35.3657 60.8008 35.7642 59.8711 35.7642 58.793C35.7642 57.7148 35.3657 56.7773 34.5688 55.9805C33.772 55.1836 32.8423 54.7852 31.7642 54.7852C30.686 54.7852 29.7485 55.1836 28.9517 55.9805C28.1548 56.7773 27.7642 57.7148 27.7642 58.793ZM38.4048 54.9492V57.1914C38.4048 58.293 38.3345 59.1445 38.2095 59.7539C38.0845 60.3633 37.9204 60.7539 37.7329 60.9336C37.5454 61.1055 37.2876 61.1992 36.9595 61.1992C36.8032 61.1914 36.6157 61.1602 36.4048 61.1133V62.6367L36.5454 62.668C36.6313 62.6992 36.7563 62.7227 36.9126 62.7539C37.0688 62.7773 37.2251 62.793 37.3657 62.793C37.936 62.793 38.4048 62.6445 38.7642 62.3633C39.1235 62.0742 39.4204 61.5039 39.6548 60.6602C39.8892 59.8164 39.9985 58.6602 39.9985 57.1992V56.3945H42.7173V62.6367H44.3188V54.957L38.4048 54.9492ZM52.4907 58.793C52.4907 59.5117 52.2485 60.1133 51.7798 60.6055C51.3032 61.1055 50.7407 61.3477 50.0923 61.3477C49.436 61.3477 48.8735 61.1055 48.397 60.6055C47.9204 60.1133 47.686 59.5117 47.686 58.793C47.686 58.0742 47.9204 57.4727 48.397 56.9727C48.8735 56.4805 49.436 56.2305 50.0923 56.2305C50.7407 56.2305 51.3032 56.4805 51.7798 56.9727C52.2485 57.4727 52.4907 58.0742 52.4907 58.793ZM46.0923 58.793C46.0923 59.8711 46.4829 60.8008 47.2798 61.5977C48.0767 62.3945 49.0142 62.793 50.0923 62.793C51.1704 62.793 52.1001 62.3945 52.897 61.5977C53.6938 60.8008 54.0923 59.8711 54.0923 58.793C54.0923 57.7148 53.6938 56.7773 52.897 55.9805C52.1001 55.1836 51.1704 54.7852 50.0923 54.7852C49.0142 54.7852 48.0767 55.1836 47.2798 55.9805C46.4829 56.7773 46.0923 57.7148 46.0923 58.793ZM55.0532 56.3867H57.6938V62.6289H59.2876V56.3867H61.9282V54.9492H55.0532V56.3867ZM69.2876 58.793C69.2876 59.5117 69.0454 60.1133 68.5767 60.6055C68.1001 61.1055 67.5376 61.3477 66.8892 61.3477C66.2329 61.3477 65.6704 61.1055 65.1938 60.6055C64.7173 60.1133 64.4829 59.5117 64.4829 58.793C64.4829 58.0742 64.7173 57.4727 65.1938 56.9727C65.6704 56.4805 66.2329 56.2305 66.8892 56.2305C67.5376 56.2305 68.1001 56.4805 68.5767 56.9727C69.0454 57.4727 69.2876 58.0742 69.2876 58.793ZM62.8892 58.793C62.8892 59.8711 63.2798 60.8008 64.0767 61.5977C64.8735 62.3945 65.811 62.793 66.8892 62.793C67.9673 62.793 68.897 62.3945 69.6938 61.5977C70.4907 60.8008 70.8892 59.8711 70.8892 58.793C70.8892 57.7148 70.4907 56.7773 69.6938 55.9805C68.897 55.1836 67.9673 54.7852 66.8892 54.7852C65.811 54.7852 64.8735 55.1836 64.0767 55.9805C63.2798 56.7773 62.8892 57.7148 62.8892 58.793ZM78.2485 54.9492L74.2485 59.9883V54.9492H72.647V62.6289H74.0845L78.0845 57.5898V62.6289H79.686V54.9492H78.2485ZM76.1626 52.5508C75.8423 52.5508 75.5767 52.4492 75.3657 52.2305C75.147 52.0117 75.0454 51.7461 75.0454 51.4258H73.8501C73.8501 52.0664 74.0688 52.6055 74.5063 53.0273C74.9438 53.457 75.4985 53.668 76.1704 53.668C76.8423 53.668 77.397 53.457 77.8345 53.0273C78.272 52.6055 78.4907 52.0664 78.4907 51.4258H77.2876C77.2876 51.7539 77.1782 52.0195 76.9673 52.2305C76.7485 52.4492 76.4829 52.5508 76.1626 52.5508Z" fill="black"/>
<circle cx="25.591" cy="82.8093" r="5.59251" fill="#C4C4C4"/>
<path d="M22.7041 83.2226L24.3538 84.8723L28.478 80.748" stroke="white" stroke-linecap="round" stroke-linejoin="round"/>
<circle cx="46.7761" cy="82.8093" r="5.59251" fill="#CCEFDB"/>
<circle cx="67.961" cy="82.8093" r="5.59251" fill="#363A45"/>
<circle cx="89.1461" cy="82.8093" r="5.59251" fill="#FFB762"/>
<path d="M20.9986 125.799V128.233H26.7554L21.8951 138.402H24.69L29.6382 127.961V125.799H20.9986ZM34.3228 132.101C34.3228 130.782 34.5865 129.763 35.1226 129.042C35.6587 128.321 36.2915 127.961 37.0298 127.961C37.7593 127.961 38.3921 128.321 38.9283 129.042C39.4556 129.763 39.7281 130.782 39.7281 132.101C39.7281 133.419 39.4556 134.438 38.9283 135.159C38.3921 135.88 37.7593 136.24 37.0298 136.24C36.2915 136.24 35.6587 135.88 35.1226 135.159C34.5865 134.438 34.3228 133.419 34.3228 132.101ZM42.4263 132.101C42.4263 130.132 41.899 128.55 40.8531 127.346C39.7984 126.142 38.524 125.535 37.0298 125.535C35.5269 125.535 34.2525 126.142 33.1978 127.346C32.1431 128.55 31.6158 130.132 31.6158 132.101C31.6158 134.069 32.1431 135.66 33.1978 136.864C34.2525 138.077 35.5269 138.675 37.0298 138.675C38.524 138.675 39.7984 138.077 40.8531 136.864C41.899 135.66 42.4263 134.069 42.4263 132.101ZM49.7212 132.101C49.7212 130.782 49.9849 129.763 50.521 129.042C51.0572 128.321 51.69 127.961 52.4283 127.961C53.1578 127.961 53.7906 128.321 54.3267 129.042C54.854 129.763 55.1265 130.782 55.1265 132.101C55.1265 133.419 54.854 134.438 54.3267 135.159C53.7906 135.88 53.1578 136.24 52.4283 136.24C51.69 136.24 51.0572 135.88 50.521 135.159C49.9849 134.438 49.7212 133.419 49.7212 132.101ZM57.8247 132.101C57.8247 130.132 57.2974 128.55 56.2515 127.346C55.1968 126.142 53.9224 125.535 52.4283 125.535C50.9253 125.535 49.6509 126.142 48.5962 127.346C47.5415 128.55 47.0142 130.132 47.0142 132.101C47.0142 134.069 47.5415 135.66 48.5962 136.864C49.6509 138.077 50.9253 138.675 52.4283 138.675C53.9224 138.675 55.1968 138.077 56.2515 136.864C57.2974 135.66 57.8247 134.069 57.8247 132.101ZM61.4283 132.101C61.4283 130.782 61.6919 129.763 62.2281 129.042C62.7642 128.321 63.397 127.961 64.1353 127.961C64.8648 127.961 65.4976 128.321 66.0337 129.042C66.5611 129.763 66.8335 130.782 66.8335 132.101C66.8335 133.419 66.5611 134.438 66.0337 135.159C65.4976 135.88 64.8648 136.24 64.1353 136.24C63.397 136.24 62.7642 135.88 62.2281 135.159C61.6919 134.438 61.4283 133.419 61.4283 132.101ZM69.5318 132.101C69.5318 130.132 69.0044 128.55 67.9585 127.346C66.9039 126.142 65.6294 125.535 64.1353 125.535C62.6324 125.535 61.358 126.142 60.3033 127.346C59.2486 128.55 58.7212 130.132 58.7212 132.101C58.7212 134.069 59.2486 135.66 60.3033 136.864C61.358 138.077 62.6324 138.675 64.1353 138.675C65.6294 138.675 66.9039 138.077 67.9585 136.864C69.0044 135.66 69.5318 134.069 69.5318 132.101ZM73.1353 132.101C73.1353 130.782 73.399 129.763 73.9351 129.042C74.4712 128.321 75.104 127.961 75.8423 127.961C76.5718 127.961 77.2046 128.321 77.7408 129.042C78.2681 129.763 78.5406 130.782 78.5406 132.101C78.5406 133.419 78.2681 134.438 77.7408 135.159C77.2046 135.88 76.5718 136.24 75.8423 136.24C75.104 136.24 74.4712 135.88 73.9351 135.159C73.399 134.438 73.1353 133.419 73.1353 132.101ZM81.2388 132.101C81.2388 130.132 80.7115 128.55 79.6656 127.346C78.6109 126.142 77.3365 125.535 75.8423 125.535C74.3394 125.535 73.065 126.142 72.0103 127.346C70.9556 128.55 70.4283 130.132 70.4283 132.101C70.4283 134.069 70.9556 135.66 72.0103 136.864C73.065 138.077 74.3394 138.675 75.8423 138.675C77.3365 138.675 78.6109 138.077 79.6656 136.864C80.7115 135.66 81.2388 134.069 81.2388 132.101ZM90.2476 131.477V128.146H92.7701C93.2623 128.146 93.6665 128.312 93.9917 128.629C94.3082 128.954 94.4751 129.358 94.4751 129.851C94.4751 130.308 94.3082 130.694 93.9917 131.011C93.6665 131.327 93.2623 131.477 92.7701 131.477H90.2476ZM92.7701 133.63C94.0884 133.63 95.1519 133.261 95.9605 132.522C96.7691 131.784 97.1734 130.87 97.1734 129.763C97.1734 128.664 96.7603 127.732 95.9341 126.959C95.108 126.186 94.0621 125.799 92.8052 125.799H87.5494V131.477H86.1958V133.63H87.5494V134.623H86.1958V136.785H87.5494V138.402H90.2476V136.785H94.0269V134.623H90.2476V133.63H92.7701Z" fill="#00C65E"/>
<path d="M131.05 133.52V128H129.374L125.653 133.285V134.721H129.731V136.402H131.05V134.721H132.134V133.52H131.05ZM129.731 133.52H126.913L129.731 129.5V133.52Z" fill="#363A45"/>
<path d="M142.623 127.387C142.838 126.741 143.769 126.741 143.983 127.387L144.747 129.699C144.794 129.84 144.885 129.963 145.007 130.05C145.129 130.137 145.275 130.184 145.426 130.184H147.9C148.593 130.184 148.88 131.054 148.32 131.455L146.319 132.883C146.197 132.97 146.106 133.093 146.059 133.234C146.013 133.375 146.013 133.527 146.059 133.668L146.824 135.98C147.038 136.627 146.284 137.165 145.723 136.765L143.722 135.337C143.6 135.25 143.453 135.203 143.303 135.203C143.152 135.203 143.005 135.25 142.883 135.337L140.882 136.765C140.322 137.165 139.569 136.627 139.782 135.98L140.547 133.668C140.593 133.527 140.593 133.375 140.547 133.234C140.5 133.093 140.409 132.97 140.287 132.883L138.287 131.455C137.727 131.055 138.015 130.184 138.707 130.184H141.18C141.331 130.184 141.478 130.138 141.6 130.051C141.722 129.963 141.813 129.841 141.86 129.7L142.624 127.388L142.623 127.387Z" fill="#363A45"/>
<path d="M163.616 130.902C163.616 128.697 165.859 126.902 168.616 126.902C171.373 126.902 173.616 128.697 173.616 130.902C173.616 133.062 171.464 134.828 168.786 134.9L166.116 136.902V134.369C164.565 133.66 163.616 132.356 163.616 130.902Z" fill="#363A45"/>
<path d="M185.155 136.402V135.201H181.077C181.229 134.908 181.446 134.627 181.727 134.357C182.009 134.088 182.302 133.859 182.594 133.666C182.887 133.479 183.186 133.268 183.497 133.033C183.807 132.799 184.083 132.576 184.323 132.354C184.563 132.131 184.762 131.855 184.921 131.527C185.073 131.199 185.155 130.848 185.155 130.461C185.155 129.734 184.891 129.125 184.364 128.627C183.837 128.135 183.157 127.883 182.337 127.883C181.915 127.883 181.54 127.953 181.2 128.094C180.86 128.234 180.596 128.393 180.421 128.557C180.239 128.727 180.081 128.92 179.946 129.137C179.811 129.359 179.729 129.512 179.7 129.594C179.671 129.682 179.647 129.752 179.635 129.805L180.714 130.285L180.755 130.162C180.784 130.08 180.843 129.975 180.925 129.857C181.007 129.74 181.106 129.629 181.218 129.512C181.329 129.395 181.487 129.295 181.686 129.213C181.885 129.131 182.102 129.084 182.331 129.084C182.805 129.084 183.175 129.207 183.438 129.453C183.702 129.699 183.831 130.039 183.831 130.461C183.831 130.76 183.755 131.035 183.596 131.287C183.444 131.539 183.239 131.756 182.987 131.943C182.735 132.131 182.46 132.324 182.155 132.518C181.856 132.711 181.557 132.922 181.253 133.156C180.948 133.391 180.673 133.648 180.421 133.93C180.169 134.211 179.964 134.568 179.805 134.99C179.653 135.412 179.571 135.887 179.571 136.402H185.155ZM190.311 130.824C189.667 130.824 189.186 130.947 188.87 131.182L188.993 129.201H192.649V128H187.792L187.552 132.74H188.512L188.671 132.541C188.77 132.412 188.964 132.283 189.245 132.154C189.526 132.025 189.843 131.961 190.194 131.961C190.669 131.961 191.067 132.125 191.389 132.441C191.706 132.764 191.87 133.162 191.87 133.643C191.87 134.123 191.706 134.527 191.389 134.844C191.073 135.166 190.675 135.324 190.194 135.324C189.919 135.324 189.655 135.295 189.409 135.225C189.163 135.154 188.964 135.078 188.811 134.996C188.659 134.914 188.512 134.814 188.378 134.703C188.243 134.592 188.155 134.516 188.114 134.469C188.073 134.422 188.044 134.387 188.032 134.363L187.194 135.201L187.3 135.348C187.382 135.436 187.499 135.541 187.663 135.67C187.827 135.799 188.02 135.928 188.243 136.057C188.466 136.186 188.753 136.291 189.098 136.385C189.444 136.479 189.807 136.525 190.194 136.525C191.085 136.525 191.811 136.256 192.362 135.723C192.913 135.184 193.194 134.492 193.194 133.648C193.194 132.828 192.919 132.154 192.38 131.627C191.841 131.094 191.149 130.824 190.311 130.824Z" fill="#363A45"/>
<g filter="url(#filter0_d_8900_6975)">
<rect x="19.9985" y="160.402" width="174" height="30" rx="10" fill="white"/>
<path d="M73.5181 171.5H72.1997V179.902H73.5181V177.383L74.8364 175.941L77.5962 179.902H79.2192L75.7388 174.98L78.979 171.5H77.2974L73.5181 175.584V171.5ZM81.2583 180.5C81.0356 181.062 80.6958 181.344 80.2388 181.344C80.0337 181.344 79.8345 181.303 79.6353 181.221V182.305L79.7173 182.328C79.7817 182.352 79.8872 182.375 80.0278 182.393C80.1685 182.416 80.3149 182.422 80.479 182.422C80.9126 182.422 81.2759 182.281 81.5688 181.994C81.8618 181.713 82.1548 181.215 82.4536 180.5L85.0376 174.143H83.7778L82.0962 178.344L80.4146 174.143H79.1548L81.4985 179.902L81.2583 180.5ZM87.1938 175.221H90.0122V179.902H91.2134V174.143H85.9927V179.902H87.1938V175.221ZM97.0962 174.143L94.0962 177.922V174.143H92.895V179.902H93.9731L96.9731 176.123V179.902H98.1743V174.143H97.0962ZM99.2583 175.221H101.239V179.902H102.434V175.221H104.415V174.143H99.2583V175.221ZM106.694 178.883V176.961H108.012C108.282 176.961 108.51 177.055 108.698 177.236C108.879 177.424 108.973 177.652 108.973 177.922C108.973 178.197 108.879 178.426 108.698 178.607C108.51 178.795 108.282 178.883 108.012 178.883H106.694ZM110.174 177.928C110.174 177.354 109.975 176.879 109.577 176.504C109.178 176.129 108.657 175.941 108.006 175.941H106.688V174.143H105.487V179.902H108.006C108.657 179.902 109.178 179.721 109.577 179.346C109.975 178.977 110.174 178.502 110.174 177.928Z" fill="#363A45"/>
<path fill-rule="evenodd" clip-rule="evenodd" d="M126.424 166.928C126.203 166.928 126.024 167.107 126.024 167.328C126.024 167.549 126.203 167.728 126.424 167.728H126.937C127.654 167.728 128.284 168.206 128.478 168.897L130.72 176.925C130.724 176.941 130.73 176.958 130.737 176.973L130.988 177.899C131.153 178.509 131.707 178.933 132.339 178.933H140.004C140.636 178.933 141.19 178.509 141.355 177.899L142.943 172.043C143.184 171.153 142.514 170.277 141.591 170.277H129.693L129.248 168.682C128.958 167.645 128.013 166.928 126.937 166.928H126.424ZM131.76 177.69L129.967 171.077H141.591C141.987 171.077 142.274 171.452 142.17 171.834L140.583 177.69C140.512 177.951 140.275 178.133 140.004 178.133H132.339C132.068 178.133 131.831 177.951 131.76 177.69Z" fill="#363A45"/>
<path d="M134.7 182.08C134.7 182.866 134.063 183.503 133.275 183.503C132.487 183.503 131.85 182.866 131.85 182.08C131.85 181.294 132.487 180.656 133.275 180.656C134.063 180.656 134.7 181.294 134.7 182.08Z" stroke="#363A45" stroke-width="0.8"/>
<path d="M140.493 182.08C140.493 182.866 139.855 183.503 139.067 183.503C138.28 183.503 137.642 182.866 137.642 182.08C137.642 181.294 138.28 180.656 139.067 180.656C139.855 180.656 140.493 181.294 140.493 182.08Z" stroke="#363A45" stroke-width="0.8"/>
</g>
<path d="M23.3593 109.879L23.3121 109.969C23.2806 110.032 23.2282 110.11 23.1547 110.2C23.0813 110.289 22.9868 110.378 22.8819 110.472C22.777 110.567 22.6249 110.656 22.436 110.74C22.2419 110.824 22.0321 110.876 21.8012 110.902V111.925H23.0865V117.402H24.7023V109.879H23.3593ZM29.2536 113.641C29.2536 112.854 29.411 112.245 29.731 111.815C30.051 111.385 30.4287 111.17 30.8694 111.17C31.3048 111.17 31.6825 111.385 32.0025 111.815C32.3173 112.245 32.4799 112.854 32.4799 113.641C32.4799 114.428 32.3173 115.036 32.0025 115.467C31.6825 115.897 31.3048 116.112 30.8694 116.112C30.4287 116.112 30.051 115.897 29.731 115.467C29.411 115.036 29.2536 114.428 29.2536 113.641ZM34.0904 113.641C34.0904 112.466 33.7757 111.522 33.1514 110.803C32.5219 110.084 31.7612 109.722 30.8694 109.722C29.9723 109.722 29.2116 110.084 28.5821 110.803C27.9525 111.522 27.6378 112.466 27.6378 113.641C27.6378 114.816 27.9525 115.766 28.5821 116.484C29.2116 117.208 29.9723 117.565 30.8694 117.565C31.7612 117.565 32.5219 117.208 33.1514 116.484C33.7757 115.766 34.0904 114.816 34.0904 113.641ZM36.5485 113.641C36.5485 112.854 36.7059 112.245 37.0259 111.815C37.3459 111.385 37.7236 111.17 38.1643 111.17C38.5997 111.17 38.9775 111.385 39.2975 111.815C39.6122 112.245 39.7749 112.854 39.7749 113.641C39.7749 114.428 39.6122 115.036 39.2975 115.467C38.9775 115.897 38.5997 116.112 38.1643 116.112C37.7236 116.112 37.3459 115.897 37.0259 115.467C36.7059 115.036 36.5485 114.428 36.5485 113.641ZM41.3854 113.641C41.3854 112.466 41.0706 111.522 40.4464 110.803C39.8168 110.084 39.0561 109.722 38.1643 109.722C37.2672 109.722 36.5066 110.084 35.877 110.803C35.2475 111.522 34.9327 112.466 34.9327 113.641C34.9327 114.816 35.2475 115.766 35.877 116.484C36.5066 117.208 37.2672 117.565 38.1643 117.565C39.0561 117.565 39.8168 117.208 40.4464 116.484C41.0706 115.766 41.3854 114.816 41.3854 113.641ZM46.354 113.641C46.354 112.854 46.5114 112.245 46.8314 111.815C47.1514 111.385 47.5292 111.17 47.9698 111.17C48.4052 111.17 48.783 111.385 49.103 111.815C49.4177 112.245 49.5804 112.854 49.5804 113.641C49.5804 114.428 49.4177 115.036 49.103 115.467C48.783 115.897 48.4052 116.112 47.9698 116.112C47.5292 116.112 47.1514 115.897 46.8314 115.467C46.5114 115.036 46.354 114.428 46.354 113.641ZM51.1909 113.641C51.1909 112.466 50.8761 111.522 50.2519 110.803C49.6223 110.084 48.8617 109.722 47.9698 109.722C47.0727 109.722 46.3121 110.084 45.6825 110.803C45.053 111.522 44.7383 112.466 44.7383 113.641C44.7383 114.816 45.053 115.766 45.6825 116.484C46.3121 117.208 47.0727 117.565 47.9698 117.565C48.8617 117.565 49.6223 117.208 50.2519 116.484C50.8761 115.766 51.1909 114.816 51.1909 113.641ZM53.649 113.641C53.649 112.854 53.8064 112.245 54.1264 111.815C54.4464 111.385 54.8241 111.17 55.2648 111.17C55.7002 111.17 56.0779 111.385 56.3979 111.815C56.7127 112.245 56.8753 112.854 56.8753 113.641C56.8753 114.428 56.7127 115.036 56.3979 115.467C56.0779 115.897 55.7002 116.112 55.2648 116.112C54.8241 116.112 54.4464 115.897 54.1264 115.467C53.8064 115.036 53.649 114.428 53.649 113.641ZM58.4859 113.641C58.4859 112.466 58.1711 111.522 57.5468 110.803C56.9173 110.084 56.1566 109.722 55.2648 109.722C54.3677 109.722 53.607 110.084 52.9775 110.803C52.348 111.522 52.0332 112.466 52.0332 113.641C52.0332 114.816 52.348 115.766 52.9775 116.484C53.607 117.208 54.3677 117.565 55.2648 117.565C56.1566 117.565 56.9173 117.208 57.5468 116.484C58.1711 115.766 58.4859 114.816 58.4859 113.641ZM60.944 113.641C60.944 112.854 61.1013 112.245 61.4213 111.815C61.7414 111.385 62.1191 111.17 62.5597 111.17C62.9952 111.17 63.3729 111.385 63.6929 111.815C64.0077 112.245 64.1703 112.854 64.1703 113.641C64.1703 114.428 64.0077 115.036 63.6929 115.467C63.3729 115.897 62.9952 116.112 62.5597 116.112C62.1191 116.112 61.7414 115.897 61.4213 115.467C61.1013 115.036 60.944 114.428 60.944 113.641ZM65.7808 113.641C65.7808 112.466 65.4661 111.522 64.8418 110.803C64.2123 110.084 63.4516 109.722 62.5597 109.722C61.6627 109.722 60.902 110.084 60.2725 110.803C59.6429 111.522 59.3282 112.466 59.3282 113.641C59.3282 114.816 59.6429 115.766 60.2725 116.484C60.902 117.208 61.6627 117.565 62.5597 117.565C63.4516 117.565 64.2123 117.208 64.8418 116.484C65.4661 115.766 65.7808 114.816 65.7808 113.641ZM71.7724 113.268V111.28H73.2781C73.5718 111.28 73.8132 111.38 74.0073 111.569C74.1961 111.763 74.2958 112.004 74.2958 112.298C74.2958 112.571 74.1961 112.802 74.0073 112.99C73.8132 113.179 73.5718 113.268 73.2781 113.268H71.7724ZM73.2781 114.554C74.065 114.554 74.6998 114.333 75.1824 113.893C75.665 113.452 75.9063 112.906 75.9063 112.245C75.9063 111.59 75.6598 111.034 75.1667 110.572C74.6735 110.11 74.0492 109.879 73.2991 109.879H70.1619V113.268H69.354V114.554H70.1619V115.147H69.354V116.437H70.1619V117.402H71.7724V116.437H74.0283V115.147H71.7724V114.554H73.2781Z" fill="#9E9E9E"/>
<path d="M19.8647 113.902H76.7662" stroke="#9E9E9E" stroke-width="1.53485"/>
</g>
<defs>
<filter id="filter0_d_8900_6975" x="1.99854" y="143.402" width="212" height="68" filterUnits="userSpaceOnUse" color-interpolation-filters="sRGB">
<feFlood flood-opacity="0" result="BackgroundImageFix"/>
<feColorMatrix in="SourceAlpha" type="matrix" values="0 0 0 0 0 0 0 0 0 0 0 0 0 0 0 0 0 0 127 0" result="hardAlpha"/>
<feMorphology radius="3" operator="dilate" in="SourceAlpha" result="effect1_dropShadow_8900_6975"/>
<feOffset dx="1" dy="2"/>
<feGaussianBlur stdDeviation="8"/>
<feColorMatrix type="matrix" values="0 0 0 0 0.211765 0 0 0 0 0.227451 0 0 0 0 0.270588 0 0 0 0.08 0"/>
<feBlend mode="normal" in2="BackgroundImageFix" result="effect1_dropShadow_8900_6975"/>
<feBlend mode="normal" in="SourceGraphic" in2="effect1_dropShadow_8900_6975" result="shape"/>
</filter>
<clipPath id="clip0_8900_6975">
<rect width="214" height="220" fill="white" transform="translate(-0.00146484 0.628906)"/>
</clipPath>
</defs>
</svg>
