<svg width="1228" height="67" viewBox="0 0 1228 67" fill="none" xmlns="http://www.w3.org/2000/svg">
<g filter="url(#filter0_d_1457_417)">
<circle cx="1194.98" cy="29.1152" r="20" transform="rotate(-90 1194.98 29.1152)" fill="#DADCDC"/>
</g>
<path fill-rule="evenodd" clip-rule="evenodd" d="M1200.91 30.0851L1193.27 37.7329C1192.74 38.2609 1191.88 38.2609 1191.35 37.7329C1190.83 37.2049 1190.83 36.3488 1191.35 35.8209L1198.05 29.1293L1191.35 22.437C1190.82 21.909 1190.82 21.0529 1191.35 20.5249C1191.88 19.9969 1192.74 19.9969 1193.26 20.5249L1200.88 28.142C1200.89 28.152 1200.9 28.1626 1200.91 28.1731C1201.37 28.6351 1201.43 29.3486 1201.09 29.8731C1201.04 29.9481 1200.98 30.0191 1200.91 30.0851Z" fill="white"/>
<g filter="url(#filter1_d_1457_417)">
<circle cx="20" cy="20" r="20" transform="matrix(4.37114e-08 -1 -1 -4.37114e-08 53.0122 49.1152)" fill="#DADCDC"/>
</g>
<path fill-rule="evenodd" clip-rule="evenodd" d="M27.0841 30.0851L34.7316 37.7329C35.2596 38.2609 36.1156 38.2609 36.6436 37.7329C37.1716 37.2049 37.1716 36.3488 36.6436 35.8209L29.952 29.1293L36.6443 22.437C37.1723 21.909 37.1723 21.0529 36.6443 20.5249C36.1163 19.9969 35.2602 19.9969 34.7322 20.5249L27.1151 28.142C27.1044 28.152 27.0945 28.1626 27.084 28.1731C26.6227 28.6351 26.5646 29.3486 26.9108 29.8731C26.9604 29.9481 27.018 30.0191 27.0841 30.0851Z" fill="white"/>
<defs>
<filter id="filter0_d_1457_417" x="1162.31" y="0.665571" width="65.349" height="65.349" filterUnits="userSpaceOnUse" color-interpolation-filters="sRGB">
<feFlood flood-opacity="0" result="BackgroundImageFix"/>
<feColorMatrix in="SourceAlpha" type="matrix" values="0 0 0 0 0 0 0 0 0 0 0 0 0 0 0 0 0 0 127 0" result="hardAlpha"/>
<feOffset dy="4.22483"/>
<feGaussianBlur stdDeviation="6.33725"/>
<feColorMatrix type="matrix" values="0 0 0 0 0.211765 0 0 0 0 0.227451 0 0 0 0 0.270588 0 0 0 0.2 0"/>
<feBlend mode="normal" in2="BackgroundImageFix" result="effect1_dropShadow_1457_417"/>
<feBlend mode="normal" in="SourceGraphic" in2="effect1_dropShadow_1457_417" result="shape"/>
</filter>
<filter id="filter1_d_1457_417" x="0.337711" y="0.665571" width="65.349" height="65.349" filterUnits="userSpaceOnUse" color-interpolation-filters="sRGB">
<feFlood flood-opacity="0" result="BackgroundImageFix"/>
<feColorMatrix in="SourceAlpha" type="matrix" values="0 0 0 0 0 0 0 0 0 0 0 0 0 0 0 0 0 0 127 0" result="hardAlpha"/>
<feOffset dy="4.22483"/>
<feGaussianBlur stdDeviation="6.33725"/>
<feColorMatrix type="matrix" values="0 0 0 0 0.211765 0 0 0 0 0.227451 0 0 0 0 0.270588 0 0 0 0.2 0"/>
<feBlend mode="normal" in2="BackgroundImageFix" result="effect1_dropShadow_1457_417"/>
<feBlend mode="normal" in="SourceGraphic" in2="effect1_dropShadow_1457_417" result="shape"/>
</filter>
</defs>
</svg>
