<svg width="280" height="27" viewBox="0 0 280 27" fill="none" xmlns="http://www.w3.org/2000/svg">
<path d="M22.2856 1.31445H16.8892V11.4043H6.09619V1.31445H0.682129V26.5215H6.09619V16.2559H16.8892V26.5215H22.2856V1.31445ZM32.1548 17.7148C32.1548 16.3965 32.5767 15.2891 33.438 14.375C34.2817 13.4785 35.3013 13.0215 36.479 13.0215C37.6392 13.0215 38.6587 13.4785 39.52 14.375C40.3638 15.2891 40.8032 16.3965 40.8032 17.7148C40.8032 19.0332 40.3638 20.1406 39.52 21.0371C38.6587 21.9336 37.6392 22.373 36.479 22.373C35.3013 22.373 34.2817 21.9336 33.438 21.0371C32.5767 20.1406 32.1548 19.0332 32.1548 17.7148ZM45.8306 17.6973C45.8306 15.2539 44.8989 13.1094 43.0356 11.2812C41.1724 9.45312 38.9927 8.53906 36.479 8.53906C33.9478 8.53906 31.7681 9.45312 29.9048 11.2812C28.0415 13.1094 27.1099 15.2539 27.1099 17.6973C27.1099 20.1582 28.0415 22.3027 29.9048 24.1309C31.7681 25.959 33.9478 26.873 36.479 26.873C38.9927 26.873 41.1724 25.959 43.0356 24.1309C44.8989 22.3027 45.8306 20.1582 45.8306 17.6973ZM49.9341 8.87305V26.5215H59.1099C61.0259 26.5215 62.5552 26.0293 63.6978 25.0273C64.8403 24.043 65.4204 22.7949 65.4204 21.3008C65.4204 20.7383 65.3149 20.2109 65.104 19.7188C64.8931 19.2441 64.6646 18.875 64.4185 18.5938C64.1724 18.3125 63.8735 18.0664 63.5396 17.8555C63.188 17.6445 62.9595 17.5039 62.8364 17.4512C62.6958 17.416 62.6079 17.3809 62.5376 17.3457L63.0649 17.0117C63.4165 16.8359 63.7856 16.4316 64.1548 15.834C64.5063 15.2363 64.6997 14.5508 64.6997 13.7422C64.6997 12.4238 64.1372 11.2812 63.0474 10.3145C61.9399 9.36523 60.5161 8.87305 58.7583 8.87305H49.9341ZM58.7583 18.9629C59.3032 18.9629 59.7427 19.1387 60.0591 19.4727C60.3755 19.8066 60.5513 20.2285 60.5513 20.7559C60.5513 21.2832 60.3755 21.7227 60.0591 22.0566C59.7427 22.4082 59.3032 22.5664 58.7583 22.5664H54.7856V18.9629H58.7583ZM59.8306 14.2871C59.8306 15.2539 59.3384 15.7285 58.3892 15.7285H54.7856V12.8457H58.3892C59.3384 12.8457 59.8306 13.3379 59.8306 14.2871ZM91.3032 8.87305H86.4341V26.5215H91.3032V8.87305ZM74.3755 22.5664V18.2422H77.2583C77.8735 18.2422 78.3833 18.4531 78.7876 18.8574C79.2095 19.2793 79.4028 19.7891 79.4028 20.4043C79.4028 21.0371 79.2095 21.5469 78.7876 21.9512C78.3833 22.373 77.8735 22.5664 77.2583 22.5664H74.3755ZM84.2896 20.4043C84.2896 18.5762 83.6743 17.0996 82.4614 15.9746C81.231 14.8496 79.561 14.2871 77.4341 14.2871H74.3755V8.87305H69.5239V26.5215H77.4341C79.5786 26.5215 81.2485 25.959 82.4614 24.834C83.6743 23.709 84.2896 22.2324 84.2896 20.4043ZM104.776 3.30078C104.143 3.30078 103.633 3.10742 103.229 2.68555C102.807 2.28125 102.614 1.77148 102.614 1.15625H99.0103C99.0103 2.68555 99.5376 3.96875 100.627 5.00586C101.717 6.02539 103.088 6.55273 104.776 6.55273C106.446 6.55273 107.817 6.02539 108.907 5.00586C109.997 3.96875 110.542 2.68555 110.542 1.15625H106.938C106.938 1.77148 106.727 2.28125 106.323 2.68555C105.901 3.10742 105.391 3.30078 104.776 3.30078ZM108.995 8.87305L101.348 18.7871V8.87305H96.4966V26.5215H100.698L108.379 16.625V26.5215H113.231V8.87305H108.995ZM127.362 26.5215H132.776V1.31445H127.362V26.5215ZM139.745 1.31445V26.5215H145.159V18.2422H150.362C152.963 18.2422 155.108 17.4336 156.813 15.8164C158.5 14.1992 159.362 12.1777 159.362 9.78711C159.362 7.39648 158.5 5.375 156.795 3.75781C155.09 2.14062 152.946 1.33203 150.362 1.33203L139.745 1.31445ZM150.186 6.20117C151.258 6.20117 152.155 6.53516 152.875 7.23828C153.596 7.94141 153.965 8.78516 153.965 9.80469C153.965 10.8066 153.596 11.6504 152.875 12.3535C152.155 13.0391 151.258 13.3906 150.186 13.3906H145.159V6.20117H150.186ZM168.686 1.31445H163.817V26.5215H168.686V17.3457C168.686 16.0273 169.002 15.0078 169.653 14.2871C170.286 13.5664 171.165 13.1973 172.272 13.1973C173.274 13.1973 174.1 13.5312 174.733 14.1992C175.366 14.8672 175.7 15.7285 175.7 16.8008V26.5215H180.551V16.2559C180.551 13.9004 179.901 12.0195 178.635 10.6133C177.37 9.22461 175.717 8.52148 173.713 8.52148C172.747 8.52148 171.833 8.76758 170.954 9.22461C170.075 9.69922 169.512 10.0684 169.266 10.3496C169.02 10.6309 168.809 10.8594 168.668 11.0527L168.686 1.31445ZM189.682 17.7148C189.682 16.3965 190.104 15.2891 190.965 14.375C191.809 13.4785 192.829 13.0215 194.006 13.0215C195.167 13.0215 196.186 13.4785 197.047 14.375C197.891 15.2891 198.331 16.3965 198.331 17.7148C198.331 19.0332 197.891 20.1406 197.047 21.0371C196.186 21.9336 195.167 22.373 194.006 22.373C192.829 22.373 191.809 21.9336 190.965 21.0371C190.104 20.1406 189.682 19.0332 189.682 17.7148ZM203.358 17.6973C203.358 15.2539 202.426 13.1094 200.563 11.2812C198.7 9.45312 196.52 8.53906 194.006 8.53906C191.475 8.53906 189.295 9.45312 187.432 11.2812C185.569 13.1094 184.637 15.2539 184.637 17.6973C184.637 20.1582 185.569 22.3027 187.432 24.1309C189.295 25.959 191.475 26.873 194.006 26.873C196.52 26.873 198.7 25.959 200.563 24.1309C202.426 22.3027 203.358 20.1582 203.358 17.6973ZM212.313 8.87305H207.461V26.5215H212.313V17.3457C212.313 16.0273 212.629 15.0078 213.28 14.2871C213.93 13.5664 214.809 13.1973 215.917 13.1973C216.918 13.1973 217.745 13.5312 218.377 14.1992C219.01 14.8672 219.327 15.7285 219.327 16.8008V26.5215H224.178V16.2559C224.178 13.9004 223.545 12.0195 222.28 10.6133C221.014 9.22461 219.362 8.52148 217.34 8.52148C216.391 8.52148 215.477 8.76758 214.598 9.22461C213.719 9.69922 213.157 10.0684 212.893 10.3496C212.647 10.6309 212.436 10.8594 212.295 11.0527L212.313 8.87305ZM246.079 1.31445L245.92 1.61328C245.815 1.82422 245.639 2.08789 245.393 2.38672C245.147 2.68555 244.831 2.98438 244.479 3.30078C244.127 3.61719 243.618 3.91602 242.985 4.19727C242.334 4.47852 241.631 4.6543 240.858 4.74219V8.16992H245.165V26.5215H250.579V1.31445H246.079ZM279.344 26.5215V21.4766H268.551C269.043 20.7031 269.782 19.9121 270.766 19.1387C271.733 18.3652 272.682 17.6621 273.614 17.0469C274.545 16.4316 275.459 15.7637 276.356 15.0254C277.235 14.2871 277.956 13.4082 278.518 12.3535C279.063 11.3164 279.344 10.1562 279.344 8.87305C279.344 6.60547 278.5 4.68945 276.848 3.125C275.196 1.57812 273.086 0.787109 270.52 0.787109C269.202 0.787109 267.989 1.01562 266.899 1.4375C265.809 1.85938 264.965 2.33398 264.368 2.84375C263.77 3.37109 263.243 3.96875 262.786 4.6543C262.329 5.33984 262.047 5.81445 261.942 6.07812C261.836 6.35938 261.749 6.57031 261.713 6.72852L266.213 8.87305L266.495 8.11719C266.706 7.625 267.127 7.11523 267.795 6.58789C268.463 6.07812 269.254 5.81445 270.168 5.81445C271.311 5.81445 272.19 6.11328 272.823 6.69336C273.456 7.27344 273.772 8.06445 273.772 9.06641C273.772 9.92773 273.456 10.7363 272.858 11.4746C272.26 12.2129 271.504 12.8633 270.625 13.4258C269.747 13.9883 268.78 14.6562 267.743 15.4473C266.688 16.2383 265.721 17.0645 264.842 17.9434C263.946 18.8223 263.208 20 262.61 21.4941C262.012 23.0059 261.713 24.6758 261.713 26.5215H279.344Z" fill="#00C65E"/>
</svg>
